<svg xmlns="http://www.w3.org/2000/svg" viewBox="0 0 1440 320" preserveAspectRatio="none">
    <path fill="#d4a6" fill-opacity="1"
        d="M0,256L20,256C40,256,80,256,120,266.7C160,277,200,299,240,282.7C280,267,320,213,360,176C400,139,440,117,480,96C520,75,560,53,600,69.3C640,85,680,139,720,144C760,149,800,107,840,106.7C880,107,920,149,960,165.3C1000,181,1040,171,1080,181.3C1120,192,1160,224,1200,213.3C1240,203,1280,149,1320,138.7C1360,128,1400,160,1420,176L1440,192L1440,320L1420,320C1400,320,1360,320,1320,320C1280,320,1240,320,1200,320C1160,320,1120,320,1080,320C1040,320,1000,320,960,320C920,320,880,320,840,320C800,320,760,320,720,320C680,320,640,320,600,320C560,320,520,320,480,320C440,320,400,320,360,320C320,320,280,320,240,320C200,320,160,320,120,320C80,320,40,320,20,320L0,320Z">
    </path>
</svg>